# xmcd
#
# Track frame offsets:
#	150
#	14199
#	28745
#	47697
#	62536
#	77021
#	91258
#	103821
#	114339
#	128751
#	141603
#	157085
#
# Disc length: 2286 seconds
# Revision: 1
# Processed by: cddbd v1.5.2PL0 Copyright (c) Steve Scherf et al.
# Submitted via: dBpowerAMP V12.0
#
DISCID=a408ec0c
DTITLE=Dave Stamey - Old Friends
DYEAR=2007
DGENRE=Country
TTITLE0=Dusty Winds
TTITLE1=The Santa Fe Trail
TTITLE2=Dan Was a Packer
TTITLE3=The One Rose (That's Left in My Heart)
TTITLE4=Waiting for a Train
TTITLE5=The Colorado Trail
TTITLE6=Cattle Call
TTITLE7=I Am My Own Grandpa
TTITLE8=The Mission San Miguel
TTITLE9=Tumbling Tumbleweeds
TTITLE10=That Silver Haired Daddy of Mine
TTITLE11=Ghost Riders in the Sky
EXTD=
EXTT0=
EXTT1=
EXTT2=
EXTT3=
EXTT4=
EXTT5=
EXTT6=
EXTT7=
EXTT8=
EXTT9=
EXTT10=
EXTT11=
PLAYORDER=
